<mxfile host="app.diagrams.net" modified="2023-01-22T09:15:36.733Z" agent="5.0 (Windows)" etag="nqazwUbWLdkqqZwONC-Q" version="20.8.5" type="github">
  <diagram id="neZpwq8YhTko7gqPgrD6" name="第 1 页">
    <mxGraphModel dx="1565" dy="483" grid="1" gridSize="10" guides="1" tooltips="1" connect="1" arrows="1" fold="1" page="1" pageScale="1" pageWidth="827" pageHeight="1169" math="0" shadow="0">
      <root>
        <mxCell id="0" />
        <mxCell id="1" parent="0" />
        <mxCell id="j-PiADsy-SWi55AoIfGo-4" style="edgeStyle=orthogonalEdgeStyle;rounded=0;orthogonalLoop=1;jettySize=auto;html=1;exitX=1;exitY=0.25;exitDx=0;exitDy=0;entryX=0;entryY=0.25;entryDx=0;entryDy=0;startArrow=none;" edge="1" parent="1" source="j-PiADsy-SWi55AoIfGo-8" target="bZvW6j5SK0as1X-uZ8HB-2">
          <mxGeometry relative="1" as="geometry" />
        </mxCell>
        <mxCell id="j-PiADsy-SWi55AoIfGo-26" value="&#xa;&lt;div&gt;&lt;font color=&quot;#FF3399&quot;&gt;主要目标：知识获取&lt;/font&gt;&lt;/div&gt;&lt;div&gt;&lt;font color=&quot;#FF3399&quot;&gt;实现方式：口译或者笔译&lt;/font&gt;&lt;/div&gt;&#xa;&#xa;" style="edgeStyle=orthogonalEdgeStyle;rounded=0;orthogonalLoop=1;jettySize=auto;html=1;exitX=0;exitY=0.25;exitDx=0;exitDy=0;entryX=1;entryY=0.25;entryDx=0;entryDy=0;fontColor=#000000;" edge="1" parent="1" source="bZvW6j5SK0as1X-uZ8HB-1" target="j-PiADsy-SWi55AoIfGo-23">
          <mxGeometry relative="1" as="geometry" />
        </mxCell>
        <mxCell id="bZvW6j5SK0as1X-uZ8HB-1" value="&lt;div&gt;英语&lt;/div&gt;&lt;div&gt;属性：工具&lt;br&gt;&lt;/div&gt;" style="rounded=1;whiteSpace=wrap;html=1;" parent="1" vertex="1">
          <mxGeometry x="220" y="540" width="70" height="45" as="geometry" />
        </mxCell>
        <mxCell id="j-PiADsy-SWi55AoIfGo-5" style="edgeStyle=orthogonalEdgeStyle;rounded=0;orthogonalLoop=1;jettySize=auto;html=1;exitX=0;exitY=0.75;exitDx=0;exitDy=0;entryX=1;entryY=0.75;entryDx=0;entryDy=0;" edge="1" parent="1" source="bZvW6j5SK0as1X-uZ8HB-2" target="bZvW6j5SK0as1X-uZ8HB-1">
          <mxGeometry relative="1" as="geometry" />
        </mxCell>
        <mxCell id="bZvW6j5SK0as1X-uZ8HB-2" value="&lt;div&gt;计算机&lt;/div&gt;&lt;div&gt;属性：工具&lt;br&gt;&lt;/div&gt;" style="rounded=1;whiteSpace=wrap;html=1;" parent="1" vertex="1">
          <mxGeometry x="550" y="540" width="70" height="45" as="geometry" />
        </mxCell>
        <mxCell id="j-PiADsy-SWi55AoIfGo-20" style="edgeStyle=orthogonalEdgeStyle;rounded=0;orthogonalLoop=1;jettySize=auto;html=1;exitX=0;exitY=1;exitDx=0;exitDy=0;entryX=1;entryY=0.2;entryDx=0;entryDy=0;entryPerimeter=0;fontColor=#000000;" edge="1" parent="1" source="bZvW6j5SK0as1X-uZ8HB-3" target="j-PiADsy-SWi55AoIfGo-18">
          <mxGeometry relative="1" as="geometry" />
        </mxCell>
        <mxCell id="j-PiADsy-SWi55AoIfGo-22" style="edgeStyle=orthogonalEdgeStyle;rounded=0;orthogonalLoop=1;jettySize=auto;html=1;exitX=1;exitY=1;exitDx=0;exitDy=0;entryX=0.04;entryY=0.129;entryDx=0;entryDy=0;entryPerimeter=0;fontColor=#000000;" edge="1" parent="1" source="bZvW6j5SK0as1X-uZ8HB-3" target="j-PiADsy-SWi55AoIfGo-19">
          <mxGeometry relative="1" as="geometry" />
        </mxCell>
        <mxCell id="bZvW6j5SK0as1X-uZ8HB-3" value="&lt;div&gt;电力&lt;/div&gt;&lt;div&gt;属性：技术&lt;/div&gt;" style="rounded=1;whiteSpace=wrap;html=1;" parent="1" vertex="1">
          <mxGeometry x="405" y="660" width="70" height="30" as="geometry" />
        </mxCell>
        <mxCell id="j-PiADsy-SWi55AoIfGo-1" value="" style="endArrow=classic;html=1;rounded=0;entryX=1;entryY=0;entryDx=0;entryDy=0;exitX=0.75;exitY=1;exitDx=0;exitDy=0;" edge="1" parent="1" source="bZvW6j5SK0as1X-uZ8HB-2" target="bZvW6j5SK0as1X-uZ8HB-3">
          <mxGeometry width="50" height="50" relative="1" as="geometry">
            <mxPoint x="520" y="600" as="sourcePoint" />
            <mxPoint x="580" y="585" as="targetPoint" />
          </mxGeometry>
        </mxCell>
        <mxCell id="j-PiADsy-SWi55AoIfGo-3" value="" style="endArrow=classic;html=1;rounded=0;exitX=0.25;exitY=1;exitDx=0;exitDy=0;entryX=0.093;entryY=0.038;entryDx=0;entryDy=0;entryPerimeter=0;startArrow=none;" edge="1" parent="1" source="j-PiADsy-SWi55AoIfGo-6" target="bZvW6j5SK0as1X-uZ8HB-3">
          <mxGeometry width="50" height="50" relative="1" as="geometry">
            <mxPoint x="500" y="660" as="sourcePoint" />
            <mxPoint x="550" y="610" as="targetPoint" />
          </mxGeometry>
        </mxCell>
        <mxCell id="j-PiADsy-SWi55AoIfGo-7" value="" style="endArrow=none;html=1;rounded=0;exitX=0.25;exitY=1;exitDx=0;exitDy=0;entryX=0.093;entryY=0.038;entryDx=0;entryDy=0;entryPerimeter=0;" edge="1" parent="1" source="bZvW6j5SK0as1X-uZ8HB-1" target="j-PiADsy-SWi55AoIfGo-6">
          <mxGeometry width="50" height="50" relative="1" as="geometry">
            <mxPoint x="377.5" y="585" as="sourcePoint" />
            <mxPoint x="426.51" y="651.14" as="targetPoint" />
          </mxGeometry>
        </mxCell>
        <mxCell id="j-PiADsy-SWi55AoIfGo-6" value="&lt;div&gt;&lt;font color=&quot;#FF3399&quot;&gt;主要目标：知识获取&lt;/font&gt;&lt;/div&gt;&lt;div&gt;&lt;font color=&quot;#FF3399&quot;&gt;实现方式：口译或者笔译&lt;br&gt;&lt;/font&gt;&lt;/div&gt;" style="text;html=1;strokeColor=none;fillColor=none;align=center;verticalAlign=middle;whiteSpace=wrap;rounded=0;" vertex="1" parent="1">
          <mxGeometry x="280" y="600" width="134" height="30" as="geometry" />
        </mxCell>
        <mxCell id="j-PiADsy-SWi55AoIfGo-9" value="" style="edgeStyle=orthogonalEdgeStyle;rounded=0;orthogonalLoop=1;jettySize=auto;html=1;exitX=1;exitY=0.25;exitDx=0;exitDy=0;entryX=0;entryY=0.25;entryDx=0;entryDy=0;endArrow=none;" edge="1" parent="1" source="bZvW6j5SK0as1X-uZ8HB-1" target="j-PiADsy-SWi55AoIfGo-8">
          <mxGeometry relative="1" as="geometry">
            <mxPoint x="430" y="551.25" as="sourcePoint" />
            <mxPoint x="480" y="551.25" as="targetPoint" />
          </mxGeometry>
        </mxCell>
        <mxCell id="j-PiADsy-SWi55AoIfGo-8" value="&lt;div&gt;&lt;font color=&quot;#FF3399&quot;&gt;主要目标：知识获取&lt;/font&gt;&lt;/div&gt;&lt;div&gt;&lt;font color=&quot;#FF3399&quot;&gt;实现方式：口译或者笔译&lt;/font&gt;&lt;/div&gt;" style="text;html=1;strokeColor=none;fillColor=none;align=center;verticalAlign=middle;whiteSpace=wrap;rounded=0;" vertex="1" parent="1">
          <mxGeometry x="370" y="540" width="140" height="20" as="geometry" />
        </mxCell>
        <mxCell id="j-PiADsy-SWi55AoIfGo-16" style="edgeStyle=orthogonalEdgeStyle;rounded=0;orthogonalLoop=1;jettySize=auto;html=1;exitX=1;exitY=0.5;exitDx=0;exitDy=0;entryX=0;entryY=0.5;entryDx=0;entryDy=0;fontColor=#000000;" edge="1" parent="1" source="j-PiADsy-SWi55AoIfGo-13" target="j-PiADsy-SWi55AoIfGo-14">
          <mxGeometry relative="1" as="geometry" />
        </mxCell>
        <mxCell id="j-PiADsy-SWi55AoIfGo-13" value="知道完整移动端APP开发流程" style="ellipse;whiteSpace=wrap;html=1;fontColor=#000000;" vertex="1" parent="1">
          <mxGeometry x="530" y="430" width="100" height="50" as="geometry" />
        </mxCell>
        <mxCell id="j-PiADsy-SWi55AoIfGo-17" style="edgeStyle=orthogonalEdgeStyle;rounded=0;orthogonalLoop=1;jettySize=auto;html=1;exitX=0.5;exitY=1;exitDx=0;exitDy=0;entryX=1.009;entryY=0.385;entryDx=0;entryDy=0;entryPerimeter=0;fontColor=#000000;" edge="1" parent="1" source="j-PiADsy-SWi55AoIfGo-14" target="bZvW6j5SK0as1X-uZ8HB-2">
          <mxGeometry relative="1" as="geometry" />
        </mxCell>
        <mxCell id="j-PiADsy-SWi55AoIfGo-14" value="知道完整WEB端开发流程" style="ellipse;whiteSpace=wrap;html=1;fontColor=#000000;" vertex="1" parent="1">
          <mxGeometry x="660" y="430" width="110" height="50" as="geometry" />
        </mxCell>
        <mxCell id="j-PiADsy-SWi55AoIfGo-15" value="" style="endArrow=classic;html=1;rounded=0;fontColor=#000000;exitX=0.5;exitY=0;exitDx=0;exitDy=0;entryX=0.551;entryY=1.03;entryDx=0;entryDy=0;entryPerimeter=0;" edge="1" parent="1" source="bZvW6j5SK0as1X-uZ8HB-2" target="j-PiADsy-SWi55AoIfGo-13">
          <mxGeometry width="50" height="50" relative="1" as="geometry">
            <mxPoint x="540" y="530" as="sourcePoint" />
            <mxPoint x="590" y="480" as="targetPoint" />
          </mxGeometry>
        </mxCell>
        <mxCell id="j-PiADsy-SWi55AoIfGo-18" value="国内读研" style="ellipse;whiteSpace=wrap;html=1;fontColor=#000000;" vertex="1" parent="1">
          <mxGeometry x="290" y="710" width="90" height="50" as="geometry" />
        </mxCell>
        <mxCell id="j-PiADsy-SWi55AoIfGo-19" value="出国留学（主）" style="ellipse;whiteSpace=wrap;html=1;fontColor=#000000;" vertex="1" parent="1">
          <mxGeometry x="490" y="715" width="95" height="45" as="geometry" />
        </mxCell>
        <mxCell id="j-PiADsy-SWi55AoIfGo-23" value="跨境电商" style="rounded=1;whiteSpace=wrap;html=1;fontColor=#000000;" vertex="1" parent="1">
          <mxGeometry y="537.5" width="70" height="50" as="geometry" />
        </mxCell>
        <mxCell id="j-PiADsy-SWi55AoIfGo-27" value="货源1：大伯茶叶" style="ellipse;whiteSpace=wrap;html=1;fontColor=#000000;" vertex="1" parent="1">
          <mxGeometry x="-10" y="470" width="100" height="30" as="geometry" />
        </mxCell>
        <mxCell id="j-PiADsy-SWi55AoIfGo-28" value="货源2：舅舅玉石" style="ellipse;whiteSpace=wrap;html=1;fontColor=#000000;" vertex="1" parent="1">
          <mxGeometry y="640" width="110" height="30" as="geometry" />
        </mxCell>
      </root>
    </mxGraphModel>
  </diagram>
</mxfile>
